<svg xmlns="http://www.w3.org/2000/svg" viewBox="0 0 960 640" role="img" aria-labelledby="title desc">
  <title id="title">Anime thumbnail</title>
  <desc id="desc">A colorful stylized city skyline at sunset.</desc>
  <defs>
    <linearGradient id="sky" x1="0" x2="1" y1="0" y2="1">
      <stop offset="0" stop-color="#f45b8c"/>
      <stop offset="0.5" stop-color="#5c7cfa"/>
      <stop offset="1" stop-color="#111827"/>
    </linearGradient>
  </defs>
  <rect width="960" height="640" fill="url(#sky)"/>
  <circle cx="760" cy="140" r="82" fill="#ffe08a"/>
  <path d="M0 455 90 370l90 55 95-145 140 180 130-215 132 215 115-95 168 125v150H0Z" fill="#172033" opacity=".88"/>
  <path d="M95 470h92v170H95Zm175-80h110v250H270Zm180 42h95v208h-95Zm165-105h125v313H615Zm215 150h82v163h-82Z" fill="#0b1220"/>
  <path d="M118 500h45m130-72h55m125 48h43m127-106h66m146 139h36" stroke="#ffd166" stroke-width="14" stroke-linecap="round"/>
</svg>
