<svg xmlns="http://www.w3.org/2000/svg" viewBox="0 0 960 640" role="img" aria-labelledby="title desc">
  <title id="title">Software industry thumbnail</title>
  <desc id="desc">A software dashboard with code blocks and status panels.</desc>
  <rect width="960" height="640" fill="#101820"/>
  <rect x="96" y="82" width="768" height="476" rx="14" fill="#f7fafc"/>
  <rect x="96" y="82" width="768" height="64" rx="14" fill="#202a35"/>
  <circle cx="135" cy="114" r="12" fill="#ff6b6b"/>
  <circle cx="174" cy="114" r="12" fill="#ffd166"/>
  <circle cx="213" cy="114" r="12" fill="#06d6a0"/>
  <rect x="145" y="198" width="255" height="310" rx="8" fill="#202a35"/>
  <path d="M185 255h130M185 310h175M185 365h100M185 420h145" stroke="#8bd3ff" stroke-width="18" stroke-linecap="round"/>
  <rect x="450" y="198" width="365" height="88" rx="8" fill="#e8f4ff"/>
  <rect x="450" y="322" width="160" height="186" rx="8" fill="#daf7e8"/>
  <rect x="655" y="322" width="160" height="186" rx="8" fill="#ffe8cc"/>
  <path d="M492 242h185M492 384h72M695 384h78M492 436h55M695 436h55" stroke="#243b53" stroke-width="18" stroke-linecap="round"/>
</svg>
